<svg width="452" height="498" viewBox="0 0 452 498" fill="none" xmlns="http://www.w3.org/2000/svg">
<path d="M398.03 302.26L398.052 401.652L227.385 497.652L56.718 401.652L56.697 303.903L99.364 328.842L99.385 376.692L206.052 436.682L206.03 362.655L227.532 349.466L248.697 362.484L248.718 436.682L355.385 376.671L355.364 327.178L398.03 302.26ZM179.404 86.0001L226.795 113.99L227.385 113.652L227.648 113.798L272.529 87.3061L451.933 191.875L406.891 219.526L451.941 246.119L271.422 351.539L227.414 324.507L182.024 352.405L1.506 246.985L47.552 219.782L0 190.57L179.404 86.0001ZM378.319 220.319L227.28 137.247L79.277 220.319L227.28 303.391L378.319 220.319Z" fill="url(#paint0_linear_112_52)"/>
<path d="M398.03 302.26L398.052 401.652L227.385 497.652L56.718 401.652L56.697 303.903L99.364 328.842L99.385 376.692L206.052 436.682L206.03 362.655L227.532 349.466L248.697 362.484L248.718 436.682L355.385 376.671L355.364 327.178L398.03 302.26ZM179.404 86.0001L226.795 113.99L227.385 113.652L227.648 113.798L272.529 87.3061L451.933 191.875L406.891 219.526L451.941 246.119L271.422 351.539L227.414 324.507L182.024 352.405L1.506 246.985L47.552 219.782L0 190.57L179.404 86.0001ZM378.319 220.319L227.28 137.247L79.277 220.319L227.28 303.391L378.319 220.319Z" fill="url(#paint1_linear_112_52)" fill-opacity="0.5"/>
<path fill-rule="evenodd" clip-rule="evenodd" d="M272.347 61.1098C294.686 85.4079 293.014 123.294 268.618 145.722C264.172 149.81 253.098 158.108 244.404 158.542L243.881 170.348C243.575 177.297 245.531 177.46 248.752 177.723C250.098 177.84 251.659 177.966 253.379 178.616C253.379 178.616 265.097 181.051 266.547 192.939C267.224 199.863 263.854 213.525 244.975 212.772L244.796 216.702C244.796 216.702 257.542 218.206 258.998 230.088C259.675 237.011 255.214 248.658 241.44 248.113L240.835 261.878C240.418 271.329 231.758 274.003 227.484 274.152L215.669 273.69C204.646 273.247 202.295 263.955 202.494 259.36L207.008 157.052C207.008 157.052 194.351 153.597 184.004 142.342C161.665 118.044 163.337 80.1586 187.733 57.7298C212.129 35.301 250.015 36.8187 272.347 61.1098ZM242.289 117.07C246.373 113.329 248.804 108.119 249.048 102.585C249.292 97.0519 247.328 91.6482 243.589 87.5622C241.728 85.5461 239.489 83.9161 236.999 82.7653C234.508 81.6145 231.816 80.9655 229.075 80.8554C226.334 80.7452 223.598 81.176 221.023 82.1232C218.448 83.0704 216.086 84.5155 214.069 86.3758C212.047 88.2289 210.408 90.4622 209.249 92.9483C208.089 95.4344 207.43 98.1246 207.31 100.865C207.19 103.606 207.611 106.344 208.548 108.922C209.486 111.5 210.923 113.868 212.776 115.891C216.534 119.96 221.754 122.37 227.288 122.591C232.822 122.812 238.218 120.826 242.289 117.07Z" fill="url(#paint2_linear_112_52)"/>
<defs>
<linearGradient id="paint0_linear_112_52" x1="451.941" y1="86.0001" x2="56.5193" y2="235.496" gradientUnits="userSpaceOnUse">
<stop stop-color="#D3A7FF"/>
<stop offset="1" stop-color="#7EAFFF"/>
</linearGradient>
<linearGradient id="paint1_linear_112_52" x1="451.941" y1="86.0001" x2="301.897" y2="506.189" gradientUnits="userSpaceOnUse">
<stop stop-color="#D3A7FF"/>
<stop offset="1" stop-color="white"/>
</linearGradient>
<linearGradient id="paint2_linear_112_52" x1="156.363" y1="215.558" x2="296.171" y2="87.0233" gradientUnits="userSpaceOnUse">
<stop stop-color="#FABB78"/>
<stop offset="0.5" stop-color="#FAD578"/>
<stop offset="1" stop-color="#FABB78"/>
</linearGradient>
</defs>
</svg>
